<svg xmlns="http://www.w3.org/2000/svg" width="36" height="36" viewBox="0 0 36 36"><path fill="#4B4F63" d="M12.8765625,14.25 L8.1234375,14.25 C3.63609375,14.25 0,17.8875 0,22.3734375 C0,23.2734375 0.7275,24 1.6246875,24 L19.3734375,24 C20.2734375,24 21,23.2734375 21,22.3734375 C21,17.8875 17.3625,14.25 12.8765625,14.25 Z M19.3734375,22.5 L1.6246875,22.5 C1.55625,22.5 1.5,22.44375 1.5,22.3734375 C1.5,18.721875 4.471875,15.75 8.1234375,15.75 L12.8765625,15.75 C16.528125,15.75 19.5,18.721875 19.5,22.3734375 C19.5,22.44375 19.44375,22.5 19.3734375,22.5 Z M10.5,12 C13.8140625,12 16.5,9.31359375 16.5,6 C16.5,2.68640625 13.8140625,0 10.5,0 C7.1859375,0 4.5,2.68640625 4.5,6 C4.5,9.31359375 7.1859375,12 10.5,12 Z M10.5,1.5 C12.9815625,1.5 15,3.5184375 15,6 C15,8.48109375 12.9815625,10.5 10.5,10.5 C8.0184375,10.5 6,8.4796875 6,6 C6,3.5184375 8.0203125,1.5 10.5,1.5 Z M17.5828125,11.296875 C18.4171875,11.75625 19.3265625,12 20.25,12 C23.146875,12 25.5,9.646875 25.5,6.75 C25.5,3.853125 23.146875,1.5 20.25,1.5 C19.6485937,1.5 19.0598437,1.6010625 18.4996875,1.79957813 C18.1093125,1.938 17.9048437,2.36629687 18.0434062,2.75676562 C18.1818281,3.14789063 18.6115312,3.35020313 19.0005937,3.21304687 C19.4015625,3.07171875 19.81875,3 20.25,3 C22.3171875,3 24,4.68234375 24,6.75 C24,8.81765625 22.3171875,10.5 20.25,10.5 C19.59,10.5 18.9417187,10.3264219 18.3759375,9.99890625 C18.0170625,9.79017188 17.5584375,9.91321875 17.35125,10.2720937 C17.1421875,10.63125 17.2640625,11.090625 17.5828125,11.296875 Z M23.0015625,15 L21,15 C20.5854375,15 20.25,15.3354375 20.25,15.75 C20.25,16.1645625 20.5875,16.5 21,16.5 L23.0001562,16.5 C26.034375,16.5 28.5,18.965625 28.5,21.9984375 C28.5,22.275 28.275,22.5 27.9984375,22.5 L23.25,22.5 C22.8354375,22.5 22.5,22.8354375 22.5,23.25 C22.5,23.6645625 22.8354375,24 23.25,24 L27.9984375,24 C29.1046875,24 30,23.1046875 30,21.9984375 C30,18.0984375 26.859375,15 23.0015625,15 Z" transform="translate(3 6)"/></svg>