<svg xmlns="http://www.w3.org/2000/svg" width="30" height="30" viewBox="0 0 36 36"><path fill="#4B4F63" d="M13.9285714,19.7276588 L10.3995536,23.2566732 C9.984375,23.6785478 9.30133929,23.6785478 8.88616071,23.2566732 C8.46428571,22.841495 8.46428571,22.15846 8.88616071,21.7432818 L14.2433036,16.3861443 C14.6584821,15.9642697 15.3415179,15.9642697 15.7566964,16.3861443 L21.1138393,21.7432818 C21.5357143,22.15846 21.5357143,22.841495 21.1138393,23.2566732 C20.6986607,23.6785478 20.015625,23.6785478 19.6004464,23.2566732 L16.0714286,19.7276588 L16.0714286,27.857115 C16.0714286,28.4464001 15.5892857,28.9285425 14.9397321,28.9285425 C14.4107143,28.9285425 13.8683036,28.4464001 13.8683036,27.857115 L13.9285714,19.7276588 Z M8.57142857,4.28571 L21.4285714,4.28571 L21.4285714,1.0714275 C21.4285714,0.479731663 21.9107143,0 22.5,0 C23.0892857,0 23.5714286,0.479731663 23.5714286,1.0714275 L23.5714286,4.28571 L25.7142857,4.28571 C28.078125,4.28571 30,6.20423487 30,8.57142 L30,29.99997 C30,32.3638069 28.078125,34.28568 25.7142857,34.28568 L4.28571429,34.28568 C1.91852679,34.28568 0,32.3638069 0,29.99997 L0,8.57142 C0,6.20423487 1.91852679,4.28571 4.28571429,4.28571 L6.42857143,4.28571 L6.42857143,1.0714275 C6.42857143,0.479731663 6.91071429,0 7.5,0 C8.08928571,0 8.57142857,0.479731663 8.57142857,1.0714275 L8.57142857,4.28571 Z M2.14285714,29.99997 C2.14285714,31.1852367 3.10245536,32.142825 4.28571429,32.142825 L25.7142857,32.142825 C26.8995536,32.142825 27.8571429,31.1852367 27.8571429,29.99997 L27.8571429,12.85713 L2.14285714,12.85713 L2.14285714,29.99997 Z M2.14285714,8.57142 L2.14285714,10.714275 L27.8571429,10.714275 L27.8571429,8.57142 C27.8571429,7.38615333 26.8995536,6.428565 25.7142857,6.428565 L4.28571429,6.428565 C3.10245536,6.428565 2.14285714,7.38615333 2.14285714,8.57142 Z" transform="translate(3 1)"/></svg>
